<svg class="icon" viewBox="0 0 1024 1024" xmlns="http://www.w3.org/2000/svg" width="200" height="200"><path d="M532.448 74.144h60.8v88.8a643.936 643.936 0 0 1 295.584 21.792c35.552 12.128 74.24 39.808 70.784 82.176q.608 234.752 0 469.728c3.552 42.88-36.16 70.4-72.096 82.368a646.944 646.944 0 0 1-294.4 21.184v109.664h-63.264C374.784 921.6 219.296 895.68 64 868.384V155.808c156.096-27.296 312.416-53.856 468.416-81.664" fill="#A12935"/><path d="M593.312 193.888a641.504 641.504 0 0 1 274.016 14.88c24.32 9.056 56.928 19.968 62.432 48.992-4.064 23.712-28.8 34.432-48.352 42.976a616 616 0 0 1-288 19.648V193.888" fill="#FFF"/><path d="M801.856 352.352a259.2 259.2 0 0 0 127.776-45.408c-2.24 43.776 3.456 88.064-3.2 131.456a140.8 140.8 0 0 1-73.216 36.864 729.6 729.6 0 0 1-260.064 9.6V352.736a816.864 816.864 0 0 0 208.544-.416M272 341.856c23.712-1.728 47.36-3.2 71.168-5.184C377.28 450.72 409.664 565.376 443.36 679.52c-23.52-1.536-47.04-3.2-70.4-5.408-6.208-25.6-12.8-50.912-19.552-76.256-31.264 0-62.528-1.12-93.664-2.656q-9.024 36.192-18.336 72.192-29.952-2.304-59.68-4.288c29.728-107.232 60.8-214.048 90.208-321.28" fill="#FFF"/><path d="M272.352 540.224c10.272-47.648 25.6-94.176 32.384-142.56 9.152 48.256 23.328 95.296 34.912 142.976q-33.76 0-67.2-.416" fill="#A12935"/><path d="M802.464 515.2a257.568 257.568 0 0 0 127.168-45.312c-2.048 43.68 3.2 87.776-2.848 131.2a137.6 137.6 0 0 1-72.704 36.96 731.424 731.424 0 0 1-260.768 9.76v-132.16a812.384 812.384 0 0 0 209.152-.512m-.384 162.944a258.4 258.4 0 0 0 127.584-45.312c-2.144 43.68 3.36 87.968-3.2 131.2-28.8 31.36-74.528 37.152-114.144 45.216a748.352 748.352 0 0 1-219.552.8c.704-43.872.416-87.68.416-131.552a809.344 809.344 0 0 0 208.736-.512" fill="#FFF"/></svg>