<?xml version="1.0" standalone="no"?><!DOCTYPE svg PUBLIC "-//W3C//DTD SVG 1.1//EN" "http://www.w3.org/Graphics/SVG/1.1/DTD/svg11.dtd"><svg t="1628090074306" class="icon" viewBox="0 0 1024 1024" version="1.1" xmlns="http://www.w3.org/2000/svg" p-id="5893" xmlns:xlink="http://www.w3.org/1999/xlink" width="200" height="200"><defs><style type="text/css"></style></defs><path d="M910.208 0H113.792C51.2 0 0 51.2 0 113.792v796.416C0 972.8 51.2 1024 113.792 1024h796.416C972.8 1024 1024 972.8 1024 910.208V113.792C1024 51.2 972.8 0 910.208 0zM486.592 438.72c-13.056 42.112-28.096 107.2-50.176 160.64-11.392 28.992-10.88 23.936-19.392 42.24l7.36-2.368c76.032-21.312 129.28-26.56 178.752-35.648-9.984-7.872-18.56-13.952-25.408-20.16-33.984-37.696-45.888-44.8-91.136-144.704z m372.992 241.088c-9.6 10.88-26.688 17.088-51.712 17.088-43.264 0-82.56-11.968-139.456-40.96-97.856 10.816-201.92 22.272-260.48 41.024-2.88 1.152-6.272 2.304-10.24 4.032-70.592 120.576-122.944 171.712-168.96 169.664-14.656-0.64-35.84-9.088-42.688-13.056l-8.448-8.064-2.944-5.632a51.712 51.712 0 0 1-2.816-30.72c6.208-30.08 38.656-77.888 106.88-120.576 10.88-8 35.52-20.544 58.24-31.36 17.28-27.392 25.216-44.992 47.04-93.44 24.704-58.688 47.232-128.768 61.44-178.816v-0.512c-21.056-68.8-33.536-115.52-12.48-191.168 5.12-21.632 23.872-43.776 44.928-43.776h13.632c13.12 0 25.6 4.48 34.688 13.632 37.568 37.568 19.904 134.272 1.152 209.92-1.152 3.456-1.728 6.272-2.24 8 22.72 64.256 58.688 127.744 94.528 157.376 14.784 11.328 29.312 24.448 47.488 34.688 25.6-2.88 48.512-5.376 71.872-5.376 70.528 0 113.216 12.544 129.728 39.296a45.76 45.76 0 0 1 6.784 31.296 55.04 55.04 0 0 1-15.936 37.504zM823.68 632.32c-5.76-5.76-22.016-21.952-101.696-21.952-3.968 0-13.76-1.024-18.88 4.672 41.6 18.24 81.28 32 107.52 32 3.904 0 7.36-0.512 10.752-1.088h2.304c2.816-1.152 4.48-1.728 5.12-7.424-1.152-1.664-2.304-3.968-5.12-6.208z m-500.8 81.536a231.872 231.872 0 0 0-27.264 17.6c-40.384 36.992-65.984 74.56-68.864 96.192 25.6-8.576 59.2-46.08 96.128-113.792z m162.432-385.28l2.88-2.24c3.968-18.176 6.784-37.76 10.176-50.304l1.728-9.088c5.632-32.448 3.52-51.392-6.208-65.024l-8.512-2.816a74.24 74.24 0 0 0-3.968 6.784c-9.664 23.936-9.152 71.552 3.968 122.752z" fill="#E6002D" p-id="5894"></path></svg>