<?xml version="1.0" standalone="no"?><!DOCTYPE svg PUBLIC "-//W3C//DTD SVG 1.1//EN" "http://www.w3.org/Graphics/SVG/1.1/DTD/svg11.dtd"><svg t="1628090092127" class="icon" viewBox="0 0 1024 1024" version="1.1" xmlns="http://www.w3.org/2000/svg" p-id="6466" xmlns:xlink="http://www.w3.org/1999/xlink" width="200" height="200"><defs><style type="text/css"></style></defs><path d="M920.992 140.96h-324.16V64.576L64 146.816v720.864l532.832 91.776v-113.216h324.16A37.184 37.184 0 0 0 960 811.168V176a37.184 37.184 0 0 0-39.008-35.04z m5.12 676.032H595.744l-0.544-60.448h79.584v-70.4h-80.192l-0.384-41.6h80.576v-70.4H593.6l-0.384-41.6h81.568v-70.4H592.96v-41.6h81.824v-70.4H592.96v-41.6h81.824v-70.4H592.96v-64h333.152z" fill="#20744A" p-id="6467"></path><path d="M719.584 238.048h138.336v70.4h-138.336zM719.584 350.08h138.336v70.4h-138.336zM719.584 462.112h138.336v70.4h-138.336zM719.584 574.144h138.336v70.4h-138.336zM719.584 686.176h138.336v70.4h-138.336z" fill="#20744A" p-id="6468"></path><path d="M203.104 341.536l68.672-3.936 43.168 118.688 51.008-123.584 68.672-3.936-83.392 168.512 83.392 168.928-72.608-4.896-49.024-128.768-49.056 123.872-66.72-5.888 77.504-149.216-71.616-159.776z" fill="#FFFFFF" p-id="6469"></path></svg>