<?xml version="1.0" standalone="no"?><!DOCTYPE svg PUBLIC "-//W3C//DTD SVG 1.1//EN" "http://www.w3.org/Graphics/SVG/1.1/DTD/svg11.dtd"><svg t="1628090064764" class="icon" viewBox="0 0 1024 1024" version="1.1" xmlns="http://www.w3.org/2000/svg" p-id="5609" xmlns:xlink="http://www.w3.org/1999/xlink" width="200" height="200"><defs><style type="text/css"></style></defs><path d="M-108.41902417-118.40358515h1240.83804834v1240.83804832H-108.41902417V-118.40358515z m729.29044534 327.03474284c-7.19783008 10.42352431-46.35814572 28.24239492-79.53844592 35.61350609-42.01400078 8.93306454-63.70443153 16.30417573-85.36820366 28.26541828-28.88826081 17.8188706-44.87010945 40.07882661-42.0406594 60.95011036 1.48924801 4.46653227 36.20726647 56.50781321 76.70899591 115.79539443 42.01400078 59.41118034 76.70778415 109.93776638 78.07343307 111.32765039 1.48924801 2.92760227-4.34293316 2.92760227-24.5441159 1.53893001-63.68019639-4.46774403-121.40340076 29.63106718-147.56036376 83.21006634-7.19783008 16.27994061-8.68586633 25.18877003-8.68586635 44.54657063 0 44.51991201 23.17846698 80.15765322 66.53388157 101.02893697 17.37173268 7.36989941 23.17846698 8.90882942 59.36149835 8.90882942 39.0124814 0 40.52596453 0 66.53388155-13.35112659 69.38756672-34.09881122 98.37397975-101.05438384 69.38756673-161.85423643-5.83218117-13.37778519-42.01521254-77.25549781-81.02648219-142.64790532l-70.72776876-120.3855258h11.4898695c46.35814572-2.92881404 78.04919795-17.8188706 99.76386379-43.15668662 18.81008695-22.259956 24.51866901-44.52112375 23.15302011-80.15765323-1.36443715-32.68469206-4.34293316-40.08003837-11.51410464-29.63227893z" fill="#8a8a8a" p-id="5610"></path></svg>