<?xml version="1.0" standalone="no"?><!DOCTYPE svg PUBLIC "-//W3C//DTD SVG 1.1//EN" "http://www.w3.org/Graphics/SVG/1.1/DTD/svg11.dtd"><svg t="1628090070506" class="icon" viewBox="0 0 1109 1024" version="1.1" xmlns="http://www.w3.org/2000/svg" p-id="5751" xmlns:xlink="http://www.w3.org/1999/xlink" width="216.6015625" height="200"><defs><style type="text/css"></style></defs><path d="M1066.661 0h-42.627v85.346h-128.03V0H213.33v85.346H85.3V0H42.661A42.74 42.74 0 0 0 0 42.673v938.666A42.74 42.74 0 0 0 42.661 1024h42.64v-42.661H213.33V1024h682.674v-42.661h128.03V1024h42.661a42.74 42.74 0 0 0 42.673-42.661V42.673A42.74 42.74 0 0 0 1066.661 0zM213.33 830.971a17.745 17.745 0 0 1-17.745 17.723H103.08a17.745 17.745 0 0 1-17.78-17.723v-92.504a17.745 17.745 0 0 1 17.746-17.757h92.505a17.745 17.745 0 0 1 17.745 17.757z m0-256.002a17.745 17.745 0 0 1-17.745 17.745H103.08a17.745 17.745 0 0 1-17.78-17.723v-92.527a17.734 17.734 0 0 1 17.78-17.746h92.505a17.734 17.734 0 0 1 17.745 17.746z m0-256.003a17.734 17.734 0 0 1-17.745 17.745H103.08a17.734 17.734 0 0 1-17.78-17.745V226.46a17.734 17.734 0 0 1 17.746-17.745h92.505a17.734 17.734 0 0 1 17.745 17.745z m537.091 216.44L472.963 697.208a32.347 32.347 0 0 1-14.431 3.325 32.89 32.89 0 0 1-16.807-4.649 31.25 31.25 0 0 1-15.11-26.669V345.59a31.238 31.238 0 0 1 15.11-26.703 32.335 32.335 0 0 1 31.137-1.29l277.469 161.79a31.057 31.057 0 0 1 0 55.985z m273.613 295.565a17.757 17.757 0 0 1-17.79 17.723h-92.506a17.757 17.757 0 0 1-17.745-17.745v-92.482a17.757 17.757 0 0 1 17.745-17.757h92.505A17.757 17.757 0 0 1 1024 738.467z m0-255.98a17.757 17.757 0 0 1-17.757 17.746h-92.539a17.757 17.757 0 0 1-17.745-17.746v-92.527a17.745 17.745 0 0 1 17.745-17.746h92.505a17.745 17.745 0 0 1 17.79 17.746z m0-256.003a17.745 17.745 0 0 1-17.757 17.746h-92.539a17.745 17.745 0 0 1-17.745-17.746v-92.527a17.745 17.745 0 0 1 17.745-17.745h92.505a17.745 17.745 0 0 1 17.79 17.745z" fill="#000000" p-id="5752"></path></svg>