<svg class="icon" viewBox="0 0 1024 1024" xmlns="http://www.w3.org/2000/svg" width="200" height="200"><path d="M962.048 321.024 702.976 61.952c-1.024-1.024-2.048-1.536-3.584-1.536H144.384c-46.08 0-83.968 37.888-83.968 83.968v735.232c0 46.08 37.888 83.968 83.968 83.968h735.232c46.08 0 83.968-37.888 83.968-83.968V324.608c0-1.024-.512-2.56-1.536-3.584zM225.28 843.776c0 3.072-2.048 5.12-5.12 5.12h-74.24c-3.072 0-5.12-2.048-5.12-5.12v-74.24c0-3.072 2.048-5.12 5.12-5.12h74.24c3.072 0 5.12 2.048 5.12 5.12v74.24zm0-151.04c0 3.072-2.048 5.12-5.12 5.12h-74.24c-3.072 0-5.12-2.048-5.12-5.12v-74.752c0-3.072 2.048-5.12 5.12-5.12h74.24c3.072 0 5.12 2.56 5.12 5.632v74.24zm0-151.552c0 3.072-2.048 5.12-5.12 5.12h-74.24c-3.072 0-5.12-2.048-5.12-5.12v-74.24c0-3.072 2.048-5.12 5.12-5.12h74.24c3.072 0 5.12 2.048 5.12 5.12v74.24zm0-151.552c0 3.072-2.048 5.12-5.12 5.12h-74.24c-3.072 0-5.12-2.048-5.12-5.12v-74.24c0-3.072 2.048-5.12 5.12-5.12h74.24c3.072 0 5.12 2.56 5.12 5.12v74.24zm0-151.04c0 3.072-2.048 5.12-5.12 5.12h-74.24c-3.072 0-5.12-2.048-5.12-5.12v-74.24c0-3.072 2.048-5.12 5.12-5.12h74.24c3.072 0 5.12 2.048 5.12 5.12v74.24zm428.032 343.552-189.44 109.568c-12.8 7.68-25.6 11.264-38.4 11.264-28.672 0-57.344-20.48-57.344-66.56V417.792c0-46.08 28.672-66.56 57.344-66.56 12.8 0 25.6 3.584 38.4 10.752l189.44 109.568c23.04 13.312 36.352 33.792 36.352 55.296 0 22.016-13.312 41.984-36.352 55.296zm213.504 261.632c0 3.072-2.048 5.12-5.12 5.12h-74.24c-3.072 0-5.12-2.048-5.12-5.12v-74.24c0-3.072 2.048-5.12 5.12-5.12h74.24c3.072 0 5.12 2.048 5.12 5.12v74.24zm0-151.04c0 3.072-2.048 5.12-5.12 5.12h-74.24c-3.072 0-5.12-2.56-5.12-5.12v-74.24c0-3.072 2.048-5.12 5.12-5.12h74.24c3.072 0 5.12 2.048 5.12 5.12v74.24zm0-151.552c0 3.072-2.048 5.12-5.12 5.12h-74.24c-3.072 0-5.12-2.048-5.12-5.12v-74.24c0-3.072 2.048-5.12 5.12-5.12h74.24c3.072 0 5.12 2.048 5.12 5.12v74.24zM737.28 339.968c-28.16 0-51.2-23.04-51.2-51.2V123.392l216.576 216.576H737.28z"/></svg>