<?xml version="1.0" standalone="no"?><!DOCTYPE svg PUBLIC "-//W3C//DTD SVG 1.1//EN" "http://www.w3.org/Graphics/SVG/1.1/DTD/svg11.dtd"><svg t="1628090058191" class="icon" viewBox="0 0 1024 1024" version="1.1" xmlns="http://www.w3.org/2000/svg" p-id="5467" xmlns:xlink="http://www.w3.org/1999/xlink" width="200" height="200"><defs><style type="text/css"></style></defs><path d="M903.543 256.8c6.857 6.857 10.743 16.114 10.743 25.829v704.8c0 20.228-16.343 36.571-36.572 36.571H146.286c-20.229 0-36.572-16.343-36.572-36.571V36.57C109.714 16.343 126.057 0 146.286 0h485.371A36.772 36.772 0 0 1 657.6 10.743L903.543 256.8z m-73.6 42.629L614.857 84.343v215.086h215.086z m-564.8-217.143v73.143h73.143V82.286h-73.143z m73.143 73.143v73.142h73.143V155.43h-73.143z m-73.143 73.142v73.143h73.143v-73.143h-73.143z m73.143 73.143v73.143h73.143v-73.143h-73.143z m-73.143 73.143V448h73.143v-73.143h-73.143zM338.286 448v73.143h73.143V448h-73.143z m-73.143 73.143v73.143h73.143v-73.143h-73.143z m0 73.143v182.857h146.286V594.286H265.143zM320 649.143h36.571v73.143H320v-73.143z" fill="#F4EA00" p-id="5468"></path></svg>