<?xml version="1.0" standalone="no"?><!DOCTYPE svg PUBLIC "-//W3C//DTD SVG 1.1//EN" "http://www.w3.org/Graphics/SVG/1.1/DTD/svg11.dtd"><svg t="1628090105912" class="icon" viewBox="0 0 1024 1024" version="1.1" xmlns="http://www.w3.org/2000/svg" p-id="7045" xmlns:xlink="http://www.w3.org/1999/xlink" width="200" height="200"><defs><style type="text/css"></style></defs><path d="M593.152 74.336v81.44c108.8 0.608 227.84-1.12 336.672 0.608a25.056 25.056 0 0 1 29.184 27.552c1.728 200.512-0.416 412.48 1.024 613.024-0.64 12.8 0.288 35.776-1.696 48.544-2.528 16.288-9.792 19.424-26.144 21.632-9.152 1.248-24.448 1.088-33.44 1.504-89.344-0.448-178.624-0.352-267.968-0.32h-37.6v81.504L64 868.256V155.936l529.152-81.632" fill="#283C82" p-id="7046"></path><path d="M593.152 186.304h336V837.76h-336v-81.44h264.64v-40.704h-264.64v-50.88h264.64V624h-264.64v-50.88h264.64v-40.736h-264.64v-50.88h264.64v-40.736h-264.64v-50.88h264.64v-40.736h-264.64v-50.88h264.64V257.536h-264.64V186.304M274.336 366.176c19.2-1.12 38.688-1.92 58.016-2.944 13.536 68.704 27.392 137.312 42.048 205.728 11.488-70.656 24.224-141.088 36.544-211.616a1837.28 1837.28 0 0 0 60.96-3.2c-23.008 98.624-43.168 198.08-68.288 296.128-16.992 8.864-42.432-0.416-62.592 1.024-13.536-67.392-29.312-134.4-41.44-202.048-11.904 65.952-27.392 131.008-41.024 196.352q-29.312-1.536-58.848-3.552c-16.896-89.6-36.736-178.528-52.512-268.32 17.408-0.8 34.912-1.536 52.32-2.144 10.496 64.832 22.4 129.376 31.552 194.304 14.336-66.56 29.024-133.152 43.264-199.712" fill="#FFFFFF" p-id="7047"></path></svg>