<svg t="1628090260415" class="icon" viewBox="0 0 1024 1024" version="1.1" xmlns="http://www.w3.org/2000/svg" p-id="1215" width="200" height="200"><path d="M157.625 39.5h708.75a118.125 118.125 0 0 1 118.125 118.125v708.75a118.125 118.125 0 0 1-118.125 118.125H157.625A118.125 118.125 0 0 1 39.5 866.375V157.625A118.125 118.125 0 0 1 157.625 39.5z m167.7375 708.75h418.87125c33.665625 0 50.6165625-24.688125 39.5128125-55.2234375l-88.8890625-243.3375c-22.1484375-60.5390625-65.1459375-64.141875-95.68125-6.733125l-34.25625 64.614375c-15.238125 28.704375-54.3965625 52.3884375-87.294375 52.3884375h-62.724375c-32.6615625 0-70.875 23.9203125-84.931875 53.4515625l-38.8040625 81.388125C277.049375 724.38875 292.405625 748.25 325.3625 748.25zM364.34375 405.6875a88.59375 88.59375 0 1 0 0-177.1875 88.59375 88.59375 0 0 0 0 177.1875z" fill="#70a070" p-id="1216"></path></svg>
