<svg class="icon" viewBox="0 0 1024 1024" xmlns="http://www.w3.org/2000/svg" width="200" height="200"><path d="M527.488 79.2h59.776v181.152h70.848c2.816-35.936-13.376-92.992 32-107.712 62.592-7.36 126.112-.704 189.12-3.2 24.864 2.208 56.672-6.048 75.392 15.2A149.28 149.28 0 0 1 960 209.952c-.288 137.6-.512 275.2 0 412.576a176 176 0 0 1-6.4 54.752 331.68 331.68 0 0 1-94.72 5.952 1126.4 1126.4 0 0 1-3.2 137.984c-8.544 23.552-36.544 22.4-56.96 23.04-70.4.192-141.024-.288-211.584 0v100.64H524.96c-153.6-27.872-307.2-53.536-460.8-80.512Q64 512 64 159.808c154.464-26.88 309.088-53.344 463.488-80.608z" fill="#077467"/><path d="M706.848 182.848c73.984-6.4 148.48-1.408 222.656-3.008v463.008h-70.4c-.192-120.992.288-241.888-.192-362.848-47.392-37.44-110.88-53.056-152.064-97.152z" fill="#FFF"/><path d="M587.264 290.56h231.52v523.392h-231.52v-60.384H758.4v-40.256H587.264v-50.336H758.4V622.72H587.264v-50.336H758.4v-40.256H587.264v-50.336H758.4v-140.8H587.264a4415.622 4415.622 0 0 1 0-50.432zM224.928 345.6c54.848 1.696 121.6-22.144 166.976 19.008 43.168 52.832 31.616 149.28-32.704 180.768a146.112 146.112 0 0 1-73.792 9.152c0 39.456-.192 78.912 0 118.4-20.32-2.016-40.672-4.032-60.8-6.4.832-106.816-.096-213.824.32-320.928z" fill="#FFF"/><path d="M285.312 399.68c19.936-1.12 44.8-4.736 58.176 14.496a74.08 74.08 0 0 1 .896 65.632c-11.68 20.64-37.44 18.624-57.6 20.928-1.984-33.536-1.664-67.36-1.472-101.056z" fill="#077467"/></svg>