<svg class="icon" viewBox="0 0 1024 1024" xmlns="http://www.w3.org/2000/svg" width="200" height="200"><path d="M181.49 31.258h480.742l240.371 240.37V932.65c0 33.19-26.903 60.093-60.093 60.093H181.49c-33.19 0-60.093-26.903-60.093-60.093V91.351c0-33.19 26.903-60.093 60.093-60.093z" fill="#F6AD00"/><path d="m274.003 728.022 87.609-128.767a13.617 13.617 0 0 1 20.816-2.05l57.9 56.728 127.035-199.117a13.617 13.617 0 0 1 23.292.523l157.84 273.542a13.617 13.617 0 0 1-11.802 20.437H285.27a13.617 13.617 0 0 1-11.273-21.296z" fill="#FFF7F7"/><path d="M300.24 436.457a68.68 68.68 0 1 0 137.36 0 68.68 68.68 0 1 0-137.36 0z" fill="#FFF"/><path d="m662.232 31.258 240.371 240.37H722.325c-33.19 0-60.093-26.903-60.093-60.092V31.258z" fill="#FBDE99"/></svg>