<svg class="icon" viewBox="0 0 1024 1024" xmlns="http://www.w3.org/2000/svg" width="200" height="200"><path d="M903.543 256.8c6.857 6.857 10.743 16.114 10.743 25.829v704.8c0 20.228-16.343 36.571-36.572 36.571H146.286c-20.229 0-36.572-16.343-36.572-36.571V36.57c0-20.227 16.343-36.57 36.572-36.57h485.371A36.772 36.772 0 0 1 657.6 10.743L903.543 256.8zm-73.6 42.629L614.857 84.343v215.086h215.086zm-564.8-217.143v73.143h73.143V82.286h-73.143zm73.143 73.143v73.142h73.143V155.43h-73.143zm-73.143 73.142v73.143h73.143v-73.143h-73.143zm73.143 73.143v73.143h73.143v-73.143h-73.143zm-73.143 73.143V448h73.143v-73.143h-73.143zM338.286 448v73.143h73.143V448h-73.143zm-73.143 73.143v73.143h73.143v-73.143h-73.143zm0 73.143v182.857h146.286V594.286H265.143zM320 649.143h36.571v73.143H320v-73.143z" fill="#F4EA00"/></svg>