<svg class="icon" viewBox="0 0 1024 1024" xmlns="http://www.w3.org/2000/svg" width="200" height="200"><path d="M929.74 233.23v728.61c-.68 29.59-24.61 53.42-54.2 54H156.01c-29.69-.59-53.71-24.51-54.2-54.2V70.24c.39-29.79 24.41-53.81 54.2-54.39h556.45" fill="#6CD342"/><path d="M929.74 233.03H738.62c-15.43-1.46-26.95-14.84-26.07-30.37V15.84l217.19 217.19z" fill="#86E55A"/><path d="M341.36 667.14a120.04 120.04 0 1 0 240.08 0 120.04 120.04 0 1 0-240.08 0zm350.1-199.89a183.9 183.9 0 0 1-170.1-113.83c-6.59-15.96.98-34.21 16.91-40.8 16.05-6.5 34.3 1.01 40.83 16.94 20.14 48.58 68.6 78.98 121.34 74.89 17.21-1.53 32.17 11.63 33.45 28.9 1.22 17.21-11.72 32.17-28.93 33.42-4.53.32-9.05.48-13.5.48z" fill="#FFF"/><path d="M550.19 702.72c-17.27 0-31.25-13.98-31.25-31.25V335.84c0-17.27 13.98-31.25 31.25-31.25s31.25 13.98 31.25 31.25v335.63c0 17.27-13.98 31.25-31.25 31.25z" fill="#FFF"/></svg>