<?xml version="1.0" standalone="no"?><!DOCTYPE svg PUBLIC "-//W3C//DTD SVG 1.1//EN" "http://www.w3.org/Graphics/SVG/1.1/DTD/svg11.dtd"><svg t="1628090098551" class="icon" viewBox="0 0 1024 1024" version="1.1" xmlns="http://www.w3.org/2000/svg" p-id="6754" xmlns:xlink="http://www.w3.org/1999/xlink" width="200" height="200"><defs><style type="text/css"></style></defs><path d="M593.152 74.272v91.616c108.8 0.608 235.424-1.12 344.128 0.512 20.544 0 21.44 18.176 21.696 34.048 1.728 190.144-0.416 385.76 1.024 576-0.384 7.488-0.192 35.2-0.416 43.072-0.704 26.336-13.888 27.488-40.224 28.288-4.224 0-16.64 0.192-20.736 0.384-101.792-0.512-203.584-0.288-305.472-0.288v101.824L64 868.288V155.936l529.152-81.632" fill="#D33922" p-id="6755"></path><path d="M593.152 196.416h336v620.8h-336V736h244.288v-40.8h-244.288v-50.88h244.288v-40.704h-244.192c0-19.968 0-39.904-0.192-59.84a142.944 142.944 0 0 0 122.24-12 139.264 139.264 0 0 0 62.688-111.168c-44.8-0.32-89.376-0.192-133.952-0.192 0-44.288 0.512-88.544-0.928-132.736-16.704 3.2-33.376 6.72-49.984 10.272V196.448" fill="#FFFFFF" p-id="6756"></path><path d="M664.512 266.368a143.232 143.232 0 0 1 133.952 133.344c-44.8 0.512-89.376 0.32-134.048 0.32V266.368" fill="#D33922" p-id="6757"></path><path d="M227.2 343.232c55.264 2.656 122.24-21.888 168.064 19.552 43.872 53.248 32.256 151.168-32.768 183.008A150.4 150.4 0 0 1 288 555.136c0 39.808-0.192 79.616 0 119.392-20.16-1.728-40.416-3.456-60.576-5.088-0.928-108.8-1.12-217.6 0-326.4" fill="#FFFFFF" p-id="6758"></path><path d="M287.776 398.272c20.064-0.928 44.8-4.576 58.432 14.24a73.856 73.856 0 0 1 1.312 66.784c-11.616 20.96-37.856 18.944-58.112 21.376-2.144-34.112-1.92-68.192-1.632-102.4" fill="#D33922" p-id="6759"></path></svg>