<svg class="icon" viewBox="0 0 1024 1024" xmlns="http://www.w3.org/2000/svg" width="200" height="200"><path d="M245.568 463.616a70.976 70.976 0 1 0 0 100.384h532.864a70.976 70.976 0 1 0 0-100.384z" fill="#FFB13B"/><path d="M359.104 289.92A70.976 70.976 0 1 0 288 360.896l376.896 376.768A70.976 70.976 0 1 0 736 666.688z" fill="#FFB13B"/><path d="M562.176 247.36a70.976 70.976 0 1 0-100.384 0v532.864a70.976 70.976 0 1 0 100.384 0z" fill="#FFB13B"/><path d="M736 360.896a70.976 70.976 0 1 0-71.104-70.976L288 666.688a70.976 70.976 0 1 0 70.976 70.976z" fill="#FFB13B"/><path d="M245.568 463.616a70.976 70.976 0 1 0 0 100.384h532.864a70.976 70.976 0 1 0 0-100.384z" fill="#FFB13B"/><path d="M359.104 289.92A70.976 70.976 0 1 0 288 360.896l376.896 376.768A70.976 70.976 0 1 0 736 666.688z" fill="#FFB13B"/><path d="M562.176 247.36a70.976 70.976 0 1 0-100.384 0v532.864a70.976 70.976 0 1 0 100.384 0z" fill="#FFB13B"/><path d="M736 360.896a70.976 70.976 0 1 0-71.104-70.976L288 666.688a70.976 70.976 0 1 0 70.976 70.976z" fill="#FFB13B"/><path d="M64 513.792h896V830.4a129.12 129.12 0 0 1-131.392 131.392H195.392A129.12 129.12 0 0 1 64 830.4z"/><path d="M198.4 737.44a116.096 116.096 0 1 1 198.4-82.08h-68.16a48 48 0 1 0-82.24 33.952 51.2 51.2 0 0 0 33.984 14.112 131.776 131.776 0 0 1 82.112 34.016 116.096 116.096 0 1 1-198.208 82.08h68.16a48 48 0 1 0 82.112-33.92 62.336 62.336 0 0 0-34.016-14.08 142.88 142.88 0 0 1-82.144-34.08zm430.432-198.176L546.72 935.68h-68L396.8 539.264h67.84l48 232.16 48-232.16zM744.96 703.456h116.096v116.096a116.096 116.096 0 1 1-232.224 0V655.36a116.096 116.096 0 0 1 232.224 0h-68a48 48 0 1 0-96.16 0v164.16a48 48 0 0 0 96.16 0v-48h-48v-68.064z" fill="#FFF"/></svg>