<svg class="icon" viewBox="0 0 1024 1024" xmlns="http://www.w3.org/2000/svg" width="200" height="200"><path d="M593.152 74.336v81.44c108.8.608 227.84-1.12 336.672.608a25.056 25.056 0 0 1 29.184 27.552c1.728 200.512-.416 412.48 1.024 613.024-.64 12.8.288 35.776-1.696 48.544-2.528 16.288-9.792 19.424-26.144 21.632-9.152 1.248-24.448 1.088-33.44 1.504-89.344-.448-178.624-.352-267.968-.32h-37.6v81.504L64 868.256v-712.32l529.152-81.632" fill="#283C82"/><path d="M593.152 186.304h336V837.76h-336v-81.44h264.64v-40.704h-264.64v-50.88h264.64V624h-264.64v-50.88h264.64v-40.736h-264.64v-50.88h264.64v-40.736h-264.64v-50.88h264.64v-40.736h-264.64v-50.88h264.64v-40.736h-264.64v-71.232M274.336 366.176c19.2-1.12 38.688-1.92 58.016-2.944 13.536 68.704 27.392 137.312 42.048 205.728 11.488-70.656 24.224-141.088 36.544-211.616a1837.28 1837.28 0 0 0 60.96-3.2c-23.008 98.624-43.168 198.08-68.288 296.128-16.992 8.864-42.432-.416-62.592 1.024-13.536-67.392-29.312-134.4-41.44-202.048C287.68 515.2 272.192 580.256 258.56 645.6q-29.312-1.536-58.848-3.552c-16.896-89.6-36.736-178.528-52.512-268.32 17.408-.8 34.912-1.536 52.32-2.144 10.496 64.832 22.4 129.376 31.552 194.304 14.336-66.56 29.024-133.152 43.264-199.712" fill="#FFF"/></svg>