<svg class="icon" viewBox="0 0 1024 1024" xmlns="http://www.w3.org/2000/svg" width="200" height="200"><path d="M920.992 140.96h-324.16V64.576L64 146.816V867.68l532.832 91.776V846.24h324.16A37.184 37.184 0 0 0 960 811.168V176a37.184 37.184 0 0 0-39.008-35.04zm5.12 676.032H595.744l-.544-60.448h79.584v-70.4h-80.192l-.384-41.6h80.576v-70.4H593.6l-.384-41.6h81.568v-70.4H592.96v-41.6h81.824v-70.4H592.96v-41.6h81.824v-70.4H592.96v-64h333.152z" fill="#20744A"/><path d="M719.584 238.048H857.92v70.4H719.584zm0 112.032H857.92v70.4H719.584zm0 112.032H857.92v70.4H719.584zm0 112.032H857.92v70.4H719.584zm0 112.032H857.92v70.4H719.584z" fill="#20744A"/><path d="m203.104 341.536 68.672-3.936 43.168 118.688 51.008-123.584 68.672-3.936-83.392 168.512 83.392 168.928-72.608-4.896-49.024-128.768-49.056 123.872-66.72-5.888 77.504-149.216-71.616-159.776z" fill="#FFF"/></svg>